<?xml version="1.0" encoding="UTF-8"?>
<!-- Generator: visioncortex VTracer 0.6.2 -->
<svg version="1.1" xmlns="http://www.w3.org/2000/svg" width="1280" height="852">
<path d="M0 0 C0.928125 0.70125 1.85625 1.4025 2.8125 2.125 C3.54597656 2.60453125 4.27945312 3.0840625 5.03515625 3.578125 C15.96149813 10.80606059 25.63733685 20.46080294 31.8125 32.125 C31.8125 32.785 31.8125 33.445 31.8125 34.125 C32.4725 34.125 33.1325 34.125 33.8125 34.125 C34.3075 35.0325 34.8025 35.94 35.3125 36.875 C37.92599376 41.46023994 40.89979353 45.79593074 43.83984375 50.17578125 C50.8125 60.60024752 50.8125 60.60024752 50.8125 63.125 C51.4725 63.125 52.1325 63.125 52.8125 63.125 C53.19728516 63.87330078 53.19728516 63.87330078 53.58984375 64.63671875 C56.51009142 70.1134122 59.87096601 75.18659322 63.44091797 80.25244141 C66.25193114 84.26067315 68.80188198 88.35811775 71.27734375 92.578125 C74.84477267 98.49660759 78.59583139 104.38962283 82.94921875 109.76171875 C84.91246804 112.25179385 86.12088607 114.8305222 87.48046875 117.6796875 C89.83675112 122.00529678 92.75385724 125.95986487 95.59375 129.9765625 C99.20545435 135.10162184 102.61554815 140.34796761 106 145.625 C106.38583252 146.22594482 106.77166504 146.82688965 107.16918945 147.44604492 C108.78328088 149.96015817 110.39611286 152.47507547 112.0078125 154.99072266 C116.07300042 161.33584834 120.15117403 167.66755227 124.35546875 173.921875 C126.02466521 176.44580745 127.63726326 179.00214633 129.25 181.5625 C131.47070105 185.0757754 133.76347497 188.49927923 136.1875 191.875 C139.57737181 196.6512913 142.56019089 201.62282654 145.54199219 206.65820312 C148.03036366 210.85160928 150.62028605 214.94236642 153.3671875 218.97265625 C154.9880571 221.38643774 156.5231578 223.84597262 158.0625 226.3125 C161.2869069 231.42260916 164.75974386 236.32038648 168.34863281 241.1784668 C174.8125 250.03612118 174.8125 250.03612118 174.8125 254.125 C175.4725 254.125 176.1325 254.125 176.8125 254.125 C177.6478125 255.61 177.6478125 255.61 178.5 257.125 C182.56147339 264.56388339 182.56147339 264.56388339 187.8125 271.125 C188.88597198 272.77136118 189.92414457 274.44096972 190.9375 276.125 C191.47632813 277.011875 192.01515625 277.89875 192.5703125 278.8125 C193.8125 281.125 193.8125 281.125 193.8125 283.125 C194.4725 283.125 195.1325 283.125 195.8125 283.125 C196.3075 284.0325 196.8025 284.94 197.3125 285.875 C199.92599376 290.46023994 202.89979353 294.79593074 205.83984375 299.17578125 C212.8125 309.60024752 212.8125 309.60024752 212.8125 312.125 C213.4725 312.125 214.1325 312.125 214.8125 312.125 C215.32039062 313.0428125 215.82828125 313.960625 216.3515625 314.90625 C219.73075646 320.95218708 223.0918313 326.76230469 227.38671875 332.21484375 C229.58475313 335.15960762 231.38660321 338.31887152 233.24609375 341.484375 C238.18187556 349.80504459 243.57912922 357.84117304 248.98291016 365.86230469 C250.30321029 367.82346397 251.62037956 369.78670417 252.9375 371.75 C253.35749268 372.37165039 253.77748535 372.99330078 254.21020508 373.63378906 C261.8125 384.97637101 261.8125 384.97637101 261.8125 388.125 C262.4725 388.125 263.1325 388.125 263.8125 388.125 C264.95410156 389.63452148 264.95410156 389.63452148 266.203125 391.74609375 C266.89281372 392.89658203 266.89281372 392.89658203 267.59643555 394.0703125 C268.32213745 395.30394531 268.32213745 395.30394531 269.0625 396.5625 C270.05189127 398.21834161 271.0427626 399.87329981 272.03515625 401.52734375 C272.51227051 402.32382324 272.98938477 403.12030273 273.48095703 403.94091797 C275.49463544 407.24388222 277.65971568 410.43203297 279.88671875 413.59375 C280.8125 415.125 280.8125 415.125 280.8125 417.125 C281.4725 417.125 282.1325 417.125 282.8125 417.125 C283.19277344 417.95 283.57304688 418.775 283.96484375 419.625 C286.51664772 424.45886123 289.68117981 428.77529376 292.87304688 433.203125 C295.60436634 437.07649821 297.58471829 440.47541246 298.8125 445.125 C299.4725 445.125 300.1325 445.125 300.8125 445.125 C300.8125 446.115 300.8125 447.105 300.8125 448.125 C301.4725 448.125 302.1325 448.125 302.8125 448.125 C304.50647404 450.59550373 306.08229259 453.06215176 307.625 455.625 C308.05103516 456.32109375 308.47707031 457.0171875 308.91601562 457.734375 C309.77928401 459.1448589 310.63880537 460.55764274 311.49462891 461.97265625 C313.24934621 464.83845613 315.07116381 467.66025827 316.90112305 470.47851562 C317.8125 472.125 317.8125 472.125 317.8125 474.125 C318.4725 474.125 319.1325 474.125 319.8125 474.125 C320.94919755 475.87053555 321.99562389 477.67511526 323 479.5 C325.83071913 484.50683446 328.89208161 489.18858712 332.234375 493.86328125 C337.8125 501.85767327 337.8125 501.85767327 337.8125 505.125 C338.4725 505.125 339.1325 505.125 339.8125 505.125 C341.32274066 507.39036098 342.70749791 509.6437676 344.0625 512 C344.87223636 513.38290589 345.68213253 514.76571822 346.4921875 516.1484375 C346.88760742 516.82874023 347.28302734 517.50904297 347.69042969 518.20996094 C349.15219743 520.70476211 350.67083963 523.16328492 352.1875 525.625 C353.86267185 528.40152794 355.32231896 531.12891908 356.5625 534.125 C357.61079326 537.17712646 357.61079326 537.17712646 359.8125 539.125 C362.03920876 543.69243574 363.9180668 548.41207494 365.8125 553.125 C366.07111816 553.75857422 366.32973633 554.39214844 366.59619141 555.04492188 C371.54018527 567.34353934 374.02017715 579.96555967 376.33520508 592.98632812 C376.60559416 595.0967977 376.60559416 595.0967977 377.8125 596.125 C380.22060335 613.91332547 380.56577051 631.63303165 378.9375 649.5 C378.85918945 650.36173828 378.78087891 651.22347656 378.70019531 652.11132812 C378.19699448 656.99681051 377.22889101 661.40709327 375.8125 666.125 C374.92892962 669.94754364 374.12345654 673.78647237 373.3125 677.625 C369.5625 695.375 369.5625 695.375 366.8125 698.125 C365.99065636 699.94887895 365.99065636 699.94887895 365.3046875 702.0390625 C365.04042969 702.79960938 364.77617188 703.56015625 364.50390625 704.34375 C364.09978516 705.53484375 364.09978516 705.53484375 363.6875 706.75 C363.41035156 707.55179688 363.13320313 708.35359375 362.84765625 709.1796875 C362.16408852 711.15967679 361.48761573 713.14211292 360.8125 715.125 C360.1525 715.125 359.4925 715.125 358.8125 715.125 C358.65974609 716.16720703 358.65974609 716.16720703 358.50390625 717.23046875 C357.69532994 720.61552552 356.34574287 723.34787019 354.75 726.4375 C354.20214844 727.50613281 353.65429688 728.57476563 353.08984375 729.67578125 C352.45755859 730.88814453 352.45755859 730.88814453 351.8125 732.125 C351.1525 732.125 350.4925 732.125 349.8125 732.125 C349.67714844 732.93904297 349.67714844 732.93904297 349.5390625 733.76953125 C346.31056608 744.23610836 336.45313962 754.48436038 328.8125 762.125 C327.69469783 763.55192277 326.59190501 764.99066424 325.5 766.4375 C320.37383144 773.12380682 314.93815907 778.59048968 307.8125 783.125 C307.21566406 783.72957031 306.61882813 784.33414063 306.00390625 784.95703125 C301.71718598 789.19790425 296.65951033 792.55653176 291.8125 796.125 C290.74128906 796.94677734 290.74128906 796.94677734 289.6484375 797.78515625 C286.42692793 800.21902802 283.87986924 801.75523916 279.8125 802.125 C279.8125 802.785 279.8125 803.445 279.8125 804.125 C278.8225 804.125 277.8325 804.125 276.8125 804.125 C276.8125 804.785 276.8125 805.445 276.8125 806.125 C261.09708498 814.125 261.09708498 814.125 256.8125 814.125 C256.8125 814.785 256.8125 815.445 256.8125 816.125 C256.26835449 816.29628418 255.72420898 816.46756836 255.16357422 816.64404297 C252.67138673 817.42884622 250.17944185 818.21441716 247.6875 819 C246.8315625 819.26941406 245.975625 819.53882813 245.09375 819.81640625 C241.5545278 820.93262248 238.02029909 822.05565195 234.5 823.23046875 C221.92594056 827.41572981 208.95865237 828.88502974 195.8125 830.125 C194.81718262 830.22603027 193.82186523 830.32706055 192.79638672 830.43115234 C177.18680045 831.86157512 177.18680045 831.86157512 171.9765625 828.05078125 C169.8409413 825.18283018 168.33689314 822.35526166 166.8125 819.125 C165.66749405 817.31941369 164.50088187 815.52733764 163.3125 813.75 C160.08000048 808.59567275 156.91279242 803.40110916 153.73828125 798.2109375 C151.59793774 794.78117812 149.35545724 791.4378327 147.0390625 788.125 C145.65965796 785.87577987 144.72996359 783.59443471 143.8125 781.125 C143.1525 781.125 142.4925 781.125 141.8125 781.125 C140.71508789 779.61206055 140.71508789 779.61206055 139.53515625 777.51171875 C139.10396484 776.75826172 138.67277344 776.00480469 138.22851562 775.22851562 C137.78185547 774.43123047 137.33519531 773.63394531 136.875 772.8125 C135.99522883 771.25145043 135.11125523 769.69276018 134.22265625 768.13671875 C133.63689819 767.09197388 133.63689819 767.09197388 133.03930664 766.02612305 C131.80373064 764.11141055 130.44759695 762.70024549 128.8125 761.125 C128.01886629 759.79593533 127.27171038 758.43846802 126.5625 757.0625 C124.16683485 752.61133968 121.374375 748.57267106 118.4375 744.46484375 C117.09487253 742.53158929 115.88937455 740.61812158 114.75 738.5625 C112.80208837 735.10652776 110.66727398 731.86330503 108.44921875 728.578125 C106.69663059 725.95133416 105.00082014 723.29351483 103.3125 720.625 C101.24914994 717.36589587 99.16064363 714.13281805 97 710.9375 C93.66208607 705.980113 90.53486497 700.89251635 87.41479492 695.79614258 C85.08600245 692.02652772 82.62260546 688.56160083 79.8125 685.125 C78.89205302 683.51421779 77.97396391 681.90194051 77.078125 680.27734375 C75.43406047 677.4814192 73.62548149 674.81425588 71.8125 672.125 C67.54832877 665.79168296 67.54832877 665.79168296 65.6875 662.4375 C64.2626805 659.92031888 62.80380774 657.57604366 61.1875 655.1875 C58.37232708 651.02132701 55.710464 646.77316402 53.0625 642.5 C46.49893085 631.93537657 39.65787639 621.55878836 32.3828125 611.46875 C30.80334309 609.11133297 29.42763366 606.67548639 28.03564453 604.20458984 C25.42185109 599.76061927 22.52296117 595.49187079 19.6875 591.1875 C15.20557957 584.35205723 10.74800622 577.50754305 6.4375 570.5625 C0.38015216 560.80792284 -5.72858918 551.12040088 -12.37109375 541.75 C-17.2902508 534.64102464 -21.92212587 527.32107453 -26.3125 519.875 C-28.82307328 515.63060539 -31.60851421 511.63936602 -34.46875 507.625 C-36.15189822 505.17678441 -37.68286378 502.68608293 -39.1875 500.125 C-41.7165581 495.8249304 -44.49626318 491.77423868 -47.38671875 487.7109375 C-51.0060062 482.51360932 -54.38615666 477.14676566 -57.62890625 471.70703125 C-59.48133705 468.63821732 -61.42479899 465.63205151 -63.375 462.625 C-66.47500532 457.8361668 -69.48684065 453.00730541 -72.4375 448.125 C-74.42652174 444.86379207 -76.34682243 441.7418431 -78.875 438.875 C-81.35953877 435.92041335 -82.99752213 432.93234103 -84.80859375 429.54296875 C-86.79034202 426.06789175 -89.12939265 422.88113849 -91.453125 419.62890625 C-93.03845724 417.34017209 -94.47304762 415.028936 -95.875 412.625 C-99.29397031 406.79699912 -103.08562446 401.22470955 -106.8737793 395.6328125 C-109.84827348 391.22087873 -112.57895206 386.76179256 -115.1875 382.125 C-116.10637674 380.69618362 -117.04181592 379.27775941 -118 377.875 C-120.28460223 374.49125665 -122.50457434 371.07527544 -124.6875 367.625 C-127.78166972 362.74126634 -130.96279928 357.92314719 -134.1875 353.125 C-134.73295345 352.10516714 -135.27840691 351.08533428 -135.84038925 350.0345974 C-137.92206286 346.84269065 -137.92206286 346.84269065 -141.36587906 346.38671303 C-142.63057903 346.39224379 -143.89527901 346.39777454 -145.19830322 346.4034729 C-146.25698628 346.39578308 -146.25698628 346.39578308 -147.33705688 346.3879379 C-149.70252197 346.37805276 -152.06543432 346.41105037 -154.43066406 346.44384766 C-156.12581319 346.44554006 -157.82096672 346.44459017 -159.51611328 346.44119263 C-164.11941988 346.43946924 -168.72179076 346.47477435 -173.32487965 346.51663637 C-178.13481225 346.55411343 -182.9447657 346.55766633 -187.75482178 346.56478882 C-196.86388253 346.58344659 -205.97251185 346.63269618 -215.08138251 346.69288576 C-225.45122907 346.75992195 -235.82109611 346.79293261 -246.19110537 346.82305837 C-267.52347783 346.88579443 -288.85546175 346.99134755 -310.1875 347.125 C-308.82038745 342.87921272 -307.24719256 339.14445196 -305.0625 335.25 C-304.25425781 333.79980469 -304.25425781 333.79980469 -303.4296875 332.3203125 C-303.01976562 331.59585937 -302.60984375 330.87140625 -302.1875 330.125 C-301.5275 330.125 -300.8675 330.125 -300.1875 330.125 C-300.09984375 329.59390625 -300.0121875 329.0628125 -299.921875 328.515625 C-298.92613493 325.27417328 -297.24426071 322.74136473 -295.4375 319.875 C-295.07406494 319.29508301 -294.71062988 318.71516602 -294.33618164 318.11767578 C-293.29075462 316.45085084 -292.23928424 314.78782079 -291.1875 313.125 C-290.33260041 311.75045557 -289.4782929 310.37554241 -288.625 309 C-286.70023072 305.92938145 -284.75758056 302.8702874 -282.8125 299.8125 C-282.2246875 298.88824219 -281.636875 297.96398437 -281.03125 297.01171875 C-279.7663778 295.03133621 -278.4952065 293.054967 -277.21875 291.08203125 C-276.5896875 290.10621094 -275.960625 289.13039063 -275.3125 288.125 C-274.73757813 287.238125 -274.16265625 286.35125 -273.5703125 285.4375 C-272.05901912 283.09868061 -272.05901912 283.09868061 -271.1875 280.125 C-270.73375 279.691875 -270.28 279.25875 -269.8125 278.8125 C-267.62200415 276.53775431 -266.51448522 273.96853977 -265.1875 271.125 C-264.5275 271.125 -263.8675 271.125 -263.1875 271.125 C-263.10371094 270.61324219 -263.01992188 270.10148437 -262.93359375 269.57421875 C-261.8719606 266.08917172 -260.06349603 263.07340375 -258.25 259.9375 C-257.70956055 258.97553711 -257.70956055 258.97553711 -257.15820312 257.99414062 C-254.43814767 253.25032383 -254.43814767 253.25032383 -252.1875 252.125 C-251.21439057 250.24589213 -250.24830074 248.36261907 -249.328125 246.45703125 C-248.14738472 244.04298349 -246.90802602 241.67373162 -245.625 239.3125 C-245.23183594 238.58417969 -244.83867187 237.85585937 -244.43359375 237.10546875 C-243.1875 235.125 -243.1875 235.125 -241.734375 233.703125 C-239.6672184 231.59420766 -238.44015501 229.26335919 -237 226.6875 C-233.83339682 221.13750466 -230.40945537 215.88394284 -226.7890625 210.62109375 C-225.05918886 208.15033335 -225.05918886 208.15033335 -224.1875 205.125 C-223.5275 205.125 -222.8675 205.125 -222.1875 205.125 C-221.919375 204.238125 -221.65125 203.35125 -221.375 202.4375 C-220.2624365 199.3340334 -219.08554222 196.81389315 -217.1875 194.125 C-216.5275 194.125 -215.8675 194.125 -215.1875 194.125 C-215.0946875 193.57972656 -215.001875 193.03445312 -214.90625 192.47265625 C-213.98002002 189.44730723 -212.43555664 187.19533121 -210.6875 184.5625 C-208.79033655 181.69731667 -207.27554062 179.38912185 -206.1875 176.125 C-205.5275 175.795 -204.8675 175.465 -204.1875 175.125 C-203.21439057 173.24589213 -202.24830074 171.36261907 -201.328125 169.45703125 C-200.14738472 167.04298349 -198.90802602 164.67373162 -197.625 162.3125 C-197.23183594 161.58417969 -196.83867187 160.85585937 -196.43359375 160.10546875 C-195.1875 158.125 -195.1875 158.125 -193.734375 156.703125 C-191.6672184 154.59420766 -190.44015501 152.26335919 -189 149.6875 C-185.83339682 144.13750466 -182.40945537 138.88394284 -178.7890625 133.62109375 C-177.05918886 131.15033335 -177.05918886 131.15033335 -176.1875 128.125 C-175.5275 128.125 -174.8675 128.125 -174.1875 128.125 C-173.919375 127.238125 -173.65125 126.35125 -173.375 125.4375 C-172.2624365 122.3340334 -171.08554222 119.81389315 -169.1875 117.125 C-168.5275 117.125 -167.8675 117.125 -167.1875 117.125 C-167.0946875 116.57972656 -167.001875 116.03445312 -166.90625 115.47265625 C-165.98002002 112.44730723 -164.43555664 110.19533121 -162.6875 107.5625 C-160.79033655 104.69731667 -159.27554062 102.38912185 -158.1875 99.125 C-157.5275 98.795 -156.8675 98.465 -156.1875 98.125 C-155.21439057 96.24589213 -154.24830074 94.36261907 -153.328125 92.45703125 C-152.14738472 90.04298349 -150.90802602 87.67373162 -149.625 85.3125 C-149.03525391 84.22001953 -149.03525391 84.22001953 -148.43359375 83.10546875 C-147.19467383 81.13640166 -145.83319515 79.7529995 -144.1875 78.125 C-143.14127125 76.14879014 -142.13310065 74.1512871 -141.1875 72.125 C-140.5275 72.125 -139.8675 72.125 -139.1875 72.125 C-138.9296875 71.25101562 -138.671875 70.37703125 -138.40625 69.4765625 C-137.17660527 66.09503951 -135.67446895 63.48887278 -133.6875 60.5 C-131.66193849 57.43590907 -129.74966493 54.45241129 -128.1875 51.125 C-127.5275 51.125 -126.8675 51.125 -126.1875 51.125 C-125.95804688 50.28839844 -125.72859375 49.45179687 -125.4921875 48.58984375 C-123.94654524 44.48509919 -121.80940265 41.26542318 -119.3125 37.6875 C-116.03601232 32.93805124 -112.98822 28.1728093 -110.1875 23.125 C-109.5275 23.125 -108.8675 23.125 -108.1875 23.125 C-107.9503125 22.40183594 -107.713125 21.67867187 -107.46875 20.93359375 C-103.59785089 12.44829967 -94.43533031 6.02685818 -86.1875 2.125 C-85.5275 2.125 -84.8675 2.125 -84.1875 2.125 C-84.1875 1.465 -84.1875 0.805 -84.1875 0.125 C-75.76457848 -4.14775021 -67.30080131 -6.59667467 -58.1875 -8.875 C-57.06730469 -9.23464844 -55.94710937 -9.59429687 -54.79296875 -9.96484375 C-37.08611942 -14.43472012 -15.41075585 -9.0651505 0 0 Z " fill="#009F69" transform="translate(658.1875,13.875)"/>
<path d="M0 0 C0.829109 -0.00861565 1.65821801 -0.0172313 2.51245153 -0.02610803 C5.3067308 -0.0536377 8.1010126 -0.07380876 10.89535522 -0.09381104 C12.89249924 -0.11152684 14.88964074 -0.12952879 16.88677979 -0.14779663 C35.1285358 -0.30688645 53.37104961 -0.3911537 71.61335182 -0.45779037 C85.10153227 -0.50805 98.58849838 -0.59401227 112.07612765 -0.72641158 C121.55559542 -0.81633793 131.03472948 -0.86422565 140.51460493 -0.88136888 C146.17841599 -0.89284319 151.8406744 -0.92323505 157.50401688 -0.99932098 C162.83482522 -1.07016971 168.16331168 -1.08899875 173.49452591 -1.06820297 C175.44892145 -1.06963075 177.40340921 -1.08985338 179.35738373 -1.13044357 C194.12731195 -1.42145427 194.12731195 -1.42145427 198.97359848 2.61190033 C201.02945726 5.39550974 202.58591148 8.07560354 204.06869507 11.1942749 C205.16117554 12.83009521 205.16117554 12.83009521 206.27572632 14.4989624 C206.80553101 15.34716553 207.33533569 16.19536865 207.88119507 17.0692749 C208.42389038 17.93294678 208.96658569 18.79661865 209.52572632 19.6864624 C210.54050475 21.33579848 211.5422486 22.99323821 212.52963257 24.65911865 C214.2307589 27.46122776 216.04370962 30.16722539 217.88119507 32.8817749 C228.06869507 48.11594773 228.06869507 48.11594773 228.06869507 51.1942749 C228.72869507 51.1942749 229.38869507 51.1942749 230.06869507 51.1942749 C231.7214895 53.60245984 233.25357149 56.00687686 234.75619507 58.5067749 C235.66208529 59.98616194 236.56833648 61.465328 237.47494507 62.9442749 C237.91838257 63.67259521 238.36182007 64.40091553 238.81869507 65.15130615 C240.43322573 67.7900547 242.08952187 70.40070409 243.75619507 73.0067749 C245.41035679 75.59573034 247.06299084 78.18522729 248.70150757 80.78411865 C252.08282149 86.13917629 255.54522982 91.43221423 259.06869507 96.6942749 C263.16030101 102.80481586 267.14929528 108.97153117 271.06869507 115.1942749 C274.35563686 120.3925661 277.64228098 125.58646398 281.06869507 130.6942749 C285.11634569 136.72817317 288.97369743 142.88253192 292.85775757 149.0223999 C295.93653642 153.87791897 299.05492771 158.69745856 302.26400757 163.4677124 C303.77716282 165.75382141 305.2674428 168.05135096 306.74838257 170.3583374 C307.23210327 171.11098877 307.71582397 171.86364014 308.21420288 172.63909912 C309.18202455 174.14704833 310.14761249 175.65643412 311.11068726 177.16741943 C313.58824735 181.02483062 316.19689053 184.61556463 319.06869507 188.1942749 C320.08822632 190.08099365 320.08822632 190.08099365 320.88119507 191.8817749 C323.36225969 197.05795677 326.73495774 201.54169643 330.06869507 206.1942749 C334.81442023 213.06070558 339.19388597 220.15718968 343.60385132 227.2411499 C347.99314117 234.2897434 352.41957635 241.3135792 357.06869507 248.1942749 C356.73869507 248.8542749 356.40869507 249.5142749 356.06869507 250.1942749 C355.2993224 250.19243132 354.52994972 250.19058773 353.73726273 250.18868828 C335.02592851 250.14454006 316.31460468 250.11143335 297.60322952 250.09065056 C288.55458965 250.0803333 279.50598452 250.06626439 270.45736694 250.043396 C262.57157517 250.02347587 254.68580856 250.01056173 246.79999232 250.00609791 C242.62363111 250.0034882 238.44734189 249.9973449 234.27100372 249.98281479 C230.34108974 249.96925264 226.41127748 249.96504949 222.48134232 249.96805954 C221.03816551 249.96750876 219.59498535 249.96352315 218.15182877 249.95586395 C216.18267521 249.9459247 214.21346722 249.94949495 212.24429321 249.95376587 C211.1418288 249.95192228 210.0393644 249.9500787 208.90349197 249.94817924 C206.07739636 250.19351952 204.41694438 250.63037547 202.06869507 252.1942749 C201.46751305 254.05021069 201.46751305 254.05021069 201.06869507 256.1942749 C200.08179612 257.91437843 199.03243429 259.59925488 197.94369507 261.2567749 C197.31076538 262.22743896 196.67783569 263.19810303 196.02572632 264.19818115 C195.05699585 265.68124756 195.05699585 265.68124756 194.06869507 267.1942749 C192.92170353 269.02688385 191.77584552 270.8602028 190.63119507 272.6942749 C184.30994903 282.58961793 177.19237267 291.67776376 169.50863647 300.53338623 C168.51052811 301.68464619 167.51840632 302.8411132 166.53109741 304.00164795 C161.54955665 309.80222252 156.22165466 315.22491707 150.81869507 320.6317749 C149.94084351 321.52187256 149.06299194 322.41197021 148.15853882 323.32904053 C140.24282839 331.26213538 131.73405425 338.31373742 122.75619507 345.0067749 C121.33887085 346.06831787 121.33887085 346.06831787 119.89291382 347.15130615 C116.99914919 349.24458264 114.04879513 351.22636038 111.06869507 353.1942749 C110.41127319 353.65189209 109.75385132 354.10950928 109.07650757 354.58099365 C93.43938986 365.38423058 75.51219354 375.13003341 57.22103882 380.44036865 C54.89256044 381.08134479 54.89256044 381.08134479 53.06869507 383.1942749 C51.29378975 383.79255352 49.49082098 384.30887355 47.67807007 384.7802124 C46.03596558 385.2138208 46.03596558 385.2138208 44.36068726 385.65618896 C42.60740112 386.1081665 42.60740112 386.1081665 40.81869507 386.5692749 C38.42254807 387.19568046 36.02671096 387.82327266 33.63119507 388.4520874 C32.48392944 388.75276123 31.33666382 389.05343506 30.15463257 389.36322021 C26.67482143 390.30034657 23.25426978 391.35802702 19.81869507 392.4442749 C-12.07597909 401.71043336 -61.899008 405.02485854 -91.93130493 389.1942749 C-93.6328721 388.53081981 -95.34137672 387.88488691 -97.05630493 387.2567749 C-102.19227329 385.23326838 -106.48069218 382.42887324 -110.93130493 379.1942749 C-111.58743774 378.73150146 -112.24357056 378.26872803 -112.91958618 377.79193115 C-120.48326311 372.32001257 -127.50088736 365.95445748 -133.93130493 359.1942749 C-134.61966431 358.47755615 -135.30802368 357.7608374 -136.01724243 357.0223999 C-140.53008489 352.19470797 -144.30585458 347.43061603 -147.53677368 341.6630249 C-148.88705938 339.19902705 -148.88705938 339.19902705 -150.41958618 336.9755249 C-159.71096604 322.95442455 -165.33571973 301.94834563 -165.93130493 285.1942749 C-165.97126587 284.16431396 -166.01122681 283.13435303 -166.05239868 282.07318115 C-166.29314501 269.5968568 -165.4974724 256.89166806 -160.93130493 245.1942749 C-160.46392667 243.82753179 -160.00228023 242.4588227 -159.54458618 241.08880615 C-159.0278129 239.56141036 -158.51088398 238.03406721 -157.99380493 236.5067749 C-157.75307251 235.78103271 -157.51234009 235.05529053 -157.26431274 234.30755615 C-155.69055636 229.75975549 -153.70700447 226.16658507 -150.93130493 222.1942749 C-149.96258581 220.2931961 -149.02467127 218.37609361 -148.11880493 216.4442749 C-145.64570084 211.38508227 -142.78241759 206.9259907 -139.46646118 202.38568115 C-137.64735833 199.78894654 -136.31906922 197.03919169 -134.93130493 194.1942749 C-134.24681274 193.51945068 -134.24681274 193.51945068 -133.54849243 192.83099365 C-131.60618333 190.86522671 -130.27529131 188.78613724 -128.80630493 186.4442749 C-128.20044556 185.48005615 -127.59458618 184.5158374 -126.97036743 183.5223999 C-125.48888929 181.10435511 -124.02556512 178.68031287 -122.57974243 176.2411499 C-122.18158325 175.57051514 -121.78342407 174.89988037 -121.37319946 174.20892334 C-120.59097562 172.88673753 -119.81315036 171.56193752 -119.04019165 170.23431396 C-117.23613557 167.17732925 -115.45255099 164.66769244 -112.93130493 162.1942749 C-111.78454398 160.34501874 -110.68489636 158.46618241 -109.61880493 156.5692749 C-107.04918958 152.08187535 -104.36892264 147.74614349 -101.46255493 143.47161865 C-99.12702488 139.9981135 -96.90959679 136.45103891 -94.67349243 132.9130249 C-92.54307656 129.58842974 -90.33227118 126.32295309 -88.09536743 123.0692749 C-86.76963079 121.09545485 -86.76963079 121.09545485 -85.93130493 118.1942749 C-85.49302368 117.7611499 -85.05474243 117.3280249 -84.60317993 116.8817749 C-82.31722358 114.57445447 -80.8531495 111.97622427 -79.18130493 109.1942749 C-78.47486351 108.02985436 -77.76782094 106.86579833 -77.06021118 105.7020874 C-76.70588013 105.11717529 -76.35154907 104.53226318 -75.98648071 103.92962646 C-74.38512316 101.29601946 -72.75800821 98.6794712 -71.11880493 96.0692749 C-70.57610962 95.20044678 -70.03341431 94.33161865 -69.47427368 93.4364624 C-67.93130493 91.1942749 -67.93130493 91.1942749 -66.34146118 89.61224365 C-64.31324447 87.57279028 -63.38883418 85.06591655 -62.16177368 82.4989624 C-60.30750174 79.02588162 -57.97720877 75.9287479 -55.68130493 72.73724365 C-53.13990754 69.04427557 -51.01064336 65.16130766 -48.93130493 61.1942749 C-48.27130493 61.1942749 -47.61130493 61.1942749 -46.93130493 61.1942749 C-46.93130493 60.2042749 -46.93130493 59.2142749 -46.93130493 58.1942749 C-46.27130493 58.1942749 -45.61130493 58.1942749 -44.93130493 58.1942749 C-44.66704712 57.47368896 -44.40278931 56.75310303 -44.13052368 56.01068115 C-42.9075735 53.13854081 -41.46024615 50.7358951 -39.74380493 48.1317749 C-36.41088374 43.01385826 -33.37620105 37.77123885 -30.41177368 32.43255615 C-29.92321899 31.69392334 -29.43466431 30.95529053 -28.93130493 30.1942749 C-28.27130493 30.1942749 -27.61130493 30.1942749 -26.93130493 30.1942749 C-26.60259399 29.21587646 -26.60259399 29.21587646 -26.26724243 28.2177124 C-24.45660646 24.1199573 -22.03066507 20.54383807 -19.55630493 16.8192749 C-15.4601971 10.62282978 -15.4601971 10.62282978 -11.70474243 4.2177124 C-8.74429085 -0.82940109 -5.36337889 0.03146502 0 0 Z " fill="#FBA01D" transform="translate(299.9313049316406,445.80572509765625)"/>
<path d="M0 0 C6.27 0 12.54 0 19 0 C19 0.33 19 0.66 19 1 C12.73 1 6.46 1 0 1 C0 0.67 0 0.34 0 0 Z " fill="#FBFDFD" transform="translate(249,845)"/>
<path d="M0 0 C2.97 0 5.94 0 9 0 C9 0.33 9 0.66 9 1 C6.03 1 3.06 1 0 1 C0 0.67 0 0.34 0 0 Z " fill="#FBFDFD" transform="translate(835,845)"/>
<path d="" fill="#FBFDFD" transform="translate(0,0)"/>
<path d="" fill="#FBFDFD" transform="translate(0,0)"/>
<path d="M0 0 C2 1 2 1 2 1 Z " fill="#FBFDFD" transform="translate(854,844)"/>
<path d="M0 0 C2 1 2 1 2 1 Z " fill="#FBFDFD" transform="translate(279,844)"/>
<path d="M0 0 C2 1 2 1 2 1 Z " fill="#FBFDFD" transform="translate(891,837)"/>
<path d="" fill="#FBFDFD" transform="translate(0,0)"/>
<path d="" fill="#FBFDFD" transform="translate(0,0)"/>
<path d="" fill="#FBFDFD" transform="translate(0,0)"/>
<path d="" fill="#FBFDFD" transform="translate(0,0)"/>
<path d="" fill="#FBFDFD" transform="translate(0,0)"/>
<path d="" fill="#FBFDFD" transform="translate(0,0)"/>
<path d="" fill="#FBFDFD" transform="translate(0,0)"/>
<path d="" fill="#FBFDFD" transform="translate(0,0)"/>
<path d="" fill="#FBFDFD" transform="translate(0,0)"/>
<path d="" fill="#FBFDFD" transform="translate(0,0)"/>
<path d="" fill="#FBFDFD" transform="translate(0,0)"/>
<path d="" fill="#FBFDFD" transform="translate(0,0)"/>
<path d="" fill="#FBFDFD" transform="translate(0,0)"/>
</svg>
